<svg width="167" height="30" viewBox="0 0 167 30" fill="none" xmlns="http://www.w3.org/2000/svg">
<path d="M13 9.5C13 11.8333 12.6111 13 9.5 13C6.38889 13 6 11.8333 6 9.5C6 7.16667 6.4375 6 9.5 6C12.5625 6 13 7.16667 13 9.5Z" fill="#D09D4A" stroke="#D09D4A" stroke-width="1.5" stroke-linecap="round" stroke-linejoin="round"/>
<path d="M13 20.5C13 22.8333 12.6111 24 9.5 24C6.38889 24 6 22.8333 6 20.5C6 18.1667 6.4375 17 9.5 17C12.5625 17 13 18.1667 13 20.5Z" fill="#D09D4A" stroke="#D09D4A" stroke-width="1.5" stroke-linecap="round" stroke-linejoin="round"/>
<path d="M24 20.5C24 22.8333 23.6111 24 20.5 24C17.3889 24 17 22.8333 17 20.5C17 18.1667 17.4375 17 20.5 17C23.5625 17 24 18.1667 24 20.5Z" fill="#D09D4A" stroke="#D09D4A" stroke-width="1.5" stroke-linecap="round" stroke-linejoin="round"/>
<path d="M44.56 12.4C44.3067 11.9333 43.94 11.58 43.46 11.34C42.9933 11.0867 42.44 10.96 41.8 10.96C40.6933 10.96 39.8067 11.3267 39.14 12.06C38.4733 12.78 38.14 13.7467 38.14 14.96C38.14 16.2533 38.4867 17.2667 39.18 18C39.8867 18.72 40.8533 19.08 42.08 19.08C42.92 19.08 43.6267 18.8667 44.2 18.44C44.7867 18.0133 45.2133 17.4 45.48 16.6H41.14V14.08H48.58V17.26C48.3267 18.1133 47.8933 18.9067 47.28 19.64C46.68 20.3733 45.9133 20.9667 44.98 21.42C44.0467 21.8733 42.9933 22.1 41.82 22.1C40.4333 22.1 39.1933 21.8 38.1 21.2C37.02 20.5867 36.1733 19.74 35.56 18.66C34.96 17.58 34.66 16.3467 34.66 14.96C34.66 13.5733 34.96 12.34 35.56 11.26C36.1733 10.1667 37.02 9.32 38.1 8.72C39.18 8.10667 40.4133 7.8 41.8 7.8C43.48 7.8 44.8933 8.20667 46.04 9.02C47.2 9.83333 47.9667 10.96 48.34 12.4H44.56ZM54.0944 12.7C54.4944 12.0867 54.9944 11.6067 55.5944 11.26C56.1944 10.9 56.861 10.72 57.5944 10.72V14.34H56.6544C55.801 14.34 55.161 14.5267 54.7344 14.9C54.3077 15.26 54.0944 15.9 54.0944 16.82V22H50.6744V10.84H54.0944V12.7ZM64.5091 22.16C63.4157 22.16 62.4291 21.9267 61.5491 21.46C60.6824 20.9933 59.9957 20.3267 59.4891 19.46C58.9957 18.5933 58.7491 17.58 58.7491 16.42C58.7491 15.2733 59.0024 14.2667 59.5091 13.4C60.0157 12.52 60.7091 11.8467 61.5891 11.38C62.4691 10.9133 63.4557 10.68 64.5491 10.68C65.6424 10.68 66.6291 10.9133 67.5091 11.38C68.3891 11.8467 69.0824 12.52 69.5891 13.4C70.0957 14.2667 70.3491 15.2733 70.3491 16.42C70.3491 17.5667 70.0891 18.58 69.5691 19.46C69.0624 20.3267 68.3624 20.9933 67.4691 21.46C66.5891 21.9267 65.6024 22.16 64.5091 22.16ZM64.5091 19.2C65.1624 19.2 65.7157 18.96 66.1691 18.48C66.6357 18 66.8691 17.3133 66.8691 16.42C66.8691 15.5267 66.6424 14.84 66.1891 14.36C65.7491 13.88 65.2024 13.64 64.5491 13.64C63.8824 13.64 63.3291 13.88 62.8891 14.36C62.4491 14.8267 62.2291 15.5133 62.2291 16.42C62.2291 17.3133 62.4424 18 62.8691 18.48C63.3091 18.96 63.8557 19.2 64.5091 19.2ZM88.3834 10.84L85.3634 22H81.5834L79.8234 14.76L78.0034 22H74.2434L71.2034 10.84H74.6234L76.2034 18.82L78.0834 10.84H81.7034L83.6034 18.78L85.1634 10.84H88.3834ZM105.066 22L103.766 20.74C102.473 21.7267 100.926 22.22 99.1259 22.22C98.0459 22.22 97.1059 22.0467 96.3059 21.7C95.5059 21.34 94.8859 20.84 94.4459 20.2C94.0193 19.5467 93.8059 18.7867 93.8059 17.92C93.8059 17.04 94.0393 16.2467 94.5059 15.54C94.9859 14.82 95.6993 14.2333 96.6459 13.78C96.2993 13.3533 96.0526 12.9467 95.9059 12.56C95.7593 12.16 95.6859 11.7267 95.6859 11.26C95.6859 10.5933 95.8593 9.98667 96.2059 9.44C96.5526 8.89333 97.0526 8.46667 97.7059 8.16C98.3726 7.84 99.1593 7.68 100.066 7.68C100.986 7.68 101.766 7.84667 102.406 8.18C103.046 8.51333 103.526 8.96 103.846 9.52C104.166 10.08 104.313 10.6933 104.286 11.36H101.066C101.079 11 100.986 10.7267 100.786 10.54C100.599 10.34 100.346 10.24 100.026 10.24C99.7059 10.24 99.4393 10.3333 99.2259 10.52C99.0126 10.7067 98.9059 10.9467 98.9059 11.24C98.9059 11.52 98.9926 11.8133 99.1659 12.12C99.3526 12.4267 99.6393 12.78 100.026 13.18L103.446 16.52C103.473 16.4533 103.506 16.3733 103.546 16.28C103.599 16.1867 103.653 16.08 103.706 15.96L104.446 14.7H107.866L106.906 16.44C106.546 17.2267 106.133 17.9733 105.666 18.68L109.046 22H105.066ZM99.2859 19.46C100.179 19.46 100.973 19.2067 101.666 18.7L98.5459 15.68C97.5859 16.1733 97.1059 16.84 97.1059 17.68C97.1059 18.1867 97.2993 18.6133 97.6859 18.96C98.0859 19.2933 98.6193 19.46 99.2859 19.46ZM130.821 7.96V22H127.401V13.58L124.261 22H121.501L118.341 13.56V22H114.921V7.96H118.961L122.901 17.68L126.801 7.96H130.821ZM138.561 22.16C137.467 22.16 136.481 21.9267 135.601 21.46C134.734 20.9933 134.047 20.3267 133.541 19.46C133.047 18.5933 132.801 17.58 132.801 16.42C132.801 15.2733 133.054 14.2667 133.561 13.4C134.067 12.52 134.761 11.8467 135.641 11.38C136.521 10.9133 137.507 10.68 138.601 10.68C139.694 10.68 140.681 10.9133 141.561 11.38C142.441 11.8467 143.134 12.52 143.641 13.4C144.147 14.2667 144.401 15.2733 144.401 16.42C144.401 17.5667 144.141 18.58 143.621 19.46C143.114 20.3267 142.414 20.9933 141.521 21.46C140.641 21.9267 139.654 22.16 138.561 22.16ZM138.561 19.2C139.214 19.2 139.767 18.96 140.221 18.48C140.687 18 140.921 17.3133 140.921 16.42C140.921 15.5267 140.694 14.84 140.241 14.36C139.801 13.88 139.254 13.64 138.601 13.64C137.934 13.64 137.381 13.88 136.941 14.36C136.501 14.8267 136.281 15.5133 136.281 16.42C136.281 17.3133 136.494 18 136.921 18.48C137.361 18.96 137.907 19.2 138.561 19.2ZM149.835 12.7C150.235 12.0867 150.735 11.6067 151.335 11.26C151.935 10.9 152.602 10.72 153.335 10.72V14.34H152.395C151.542 14.34 150.902 14.5267 150.475 14.9C150.048 15.26 149.835 15.9 149.835 16.82V22H146.415V10.84H149.835V12.7ZM165.69 16.24C165.69 16.56 165.67 16.8933 165.63 17.24H157.89C157.943 17.9333 158.163 18.4667 158.55 18.84C158.95 19.2 159.436 19.38 160.01 19.38C160.863 19.38 161.456 19.02 161.79 18.3H165.43C165.243 19.0333 164.903 19.6933 164.41 20.28C163.93 20.8667 163.323 21.3267 162.59 21.66C161.856 21.9933 161.036 22.16 160.13 22.16C159.036 22.16 158.063 21.9267 157.21 21.46C156.356 20.9933 155.69 20.3267 155.21 19.46C154.73 18.5933 154.49 17.58 154.49 16.42C154.49 15.26 154.723 14.2467 155.19 13.38C155.67 12.5133 156.336 11.8467 157.19 11.38C158.043 10.9133 159.023 10.68 160.13 10.68C161.21 10.68 162.17 10.9067 163.01 11.36C163.85 11.8133 164.503 12.46 164.97 13.3C165.45 14.14 165.69 15.12 165.69 16.24ZM162.19 15.34C162.19 14.7533 161.99 14.2867 161.59 13.94C161.19 13.5933 160.69 13.42 160.09 13.42C159.516 13.42 159.03 13.5867 158.63 13.92C158.243 14.2533 158.003 14.7267 157.91 15.34H162.19Z" fill="black"/>
</svg>
