<svg width="64" height="65" viewBox="0 0 64 65" fill="none" xmlns="http://www.w3.org/2000/svg">
<g filter="url(#filter0_d_204_221)">
<rect x="10" y="8.5" width="44" height="44" rx="12" fill="white" shape-rendering="crispEdges"/>
<path fill-rule="evenodd" clip-rule="evenodd" d="M28.8927 24.7901C28.9593 24.3247 29.1016 24.068 29.3031 23.8953C29.6384 23.6079 30.3628 23.3499 31.9999 23.3499C33.637 23.3499 34.3614 23.6079 34.6967 23.8953C34.8985 24.0683 35.0409 24.3255 35.1074 24.7923C34.2012 24.6893 33.1685 24.6499 31.9999 24.6499C30.8299 24.6499 29.7977 24.6895 28.8927 24.7901ZM27.1588 25.1031C27.2027 24.1775 27.4266 23.2646 28.1967 22.6045C29.0281 21.8919 30.3036 21.6499 31.9999 21.6499C33.6962 21.6499 34.9717 21.8919 35.8031 22.6045C36.5762 23.2672 36.7988 24.1846 36.8415 25.1139C37.7271 25.3608 38.4775 25.7341 39.0803 26.2976C40.2613 27.4015 40.6877 29.0593 40.8091 31.2388C40.8356 31.3211 40.8499 31.4088 40.8499 31.4999C40.8499 31.6576 40.8468 31.8168 40.8386 31.9765C40.8465 32.2792 40.8499 32.591 40.8499 32.9117C40.8499 35.3465 40.532 37.3445 39.0662 38.654C37.6392 39.9289 35.3373 40.3499 31.9999 40.3499C30.3151 40.3499 28.9159 40.2679 27.7711 40.0395C26.6221 39.8104 25.6701 39.4226 24.9346 38.7675C23.4552 37.4499 23.1499 35.3221 23.1499 32.4999C23.1499 32.2797 23.1518 32.0638 23.1559 31.8521C23.1516 31.7342 23.1499 31.6166 23.1499 31.4999C23.1499 31.433 23.1576 31.3679 23.1723 31.3054C23.2644 29.072 23.6717 27.3571 24.9346 26.2323C25.5352 25.6974 26.2801 25.3407 27.1588 25.1031ZM24.8569 31.8409C24.9108 29.4191 25.2796 28.2016 26.0652 27.5018C26.4963 27.1179 27.1277 26.8221 28.1037 26.6274C29.0839 26.4319 30.3514 26.3499 31.9999 26.3499C33.6492 26.3499 34.9141 26.4321 35.8913 26.6329C36.8622 26.8324 37.4891 27.1373 37.9195 27.5395C38.6916 28.2613 39.0645 29.5151 39.1367 31.9589C39.1136 32.3252 39.0585 32.6212 38.9612 32.8694C38.8369 33.1867 38.6281 33.4657 38.2261 33.7151C37.3433 34.2629 35.5691 34.6499 32.0059 34.6499C28.4431 34.6499 26.6651 34.263 25.7789 33.7146C25.3749 33.4647 25.1649 33.185 25.0399 32.8678C24.9319 32.5939 24.8754 32.2616 24.8569 31.8409ZM38.9825 35.2429C38.8013 36.2422 38.4646 36.9118 37.9336 37.3862C37.0273 38.1959 35.3292 38.6499 31.9999 38.6499C30.3514 38.6499 29.0839 38.5679 28.1037 38.3724C27.1277 38.1777 26.4963 37.8819 26.0652 37.498C25.5476 37.037 25.211 36.3512 25.0261 35.2443C26.3756 36.0115 28.5683 36.3499 32.0059 36.3499C35.4446 36.3499 37.6356 36.0113 38.9825 35.2429ZM29.1499 32.4999C29.1499 32.0305 29.5305 31.6499 29.9999 31.6499H33.9999C34.4693 31.6499 34.8499 32.0305 34.8499 32.4999C34.8499 32.9693 34.4693 33.3499 33.9999 33.3499L29.9999 33.3499C29.5305 33.3499 29.1499 32.9693 29.1499 32.4999Z" fill="#D09D4A"/>
</g>
<defs>
<filter id="filter0_d_204_221" x="0" y="0.5" width="64" height="64" filterUnits="userSpaceOnUse" color-interpolation-filters="sRGB">
<feFlood flood-opacity="0" result="BackgroundImageFix"/>
<feColorMatrix in="SourceAlpha" type="matrix" values="0 0 0 0 0 0 0 0 0 0 0 0 0 0 0 0 0 0 127 0" result="hardAlpha"/>
<feOffset dy="2"/>
<feGaussianBlur stdDeviation="5"/>
<feComposite in2="hardAlpha" operator="out"/>
<feColorMatrix type="matrix" values="0 0 0 0 0.486275 0 0 0 0 0.552941 0 0 0 0 0.709804 0 0 0 0.12 0"/>
<feBlend mode="normal" in2="BackgroundImageFix" result="effect1_dropShadow_204_221"/>
<feBlend mode="normal" in="SourceGraphic" in2="effect1_dropShadow_204_221" result="shape"/>
</filter>
</defs>
</svg>
