<svg width="21" height="20" viewBox="0 0 21 20" fill="none" xmlns="http://www.w3.org/2000/svg">
<path d="M16.3334 17.5L13.8334 15M13.8334 15L16.3334 12.5M13.8334 15H18.8334M10.5001 12.9167H6.75009C5.58711 12.9167 5.00563 12.9167 4.53246 13.0602C3.46713 13.3834 2.63345 14.217 2.31028 15.2824C2.16675 15.7555 2.16675 16.337 2.16675 17.5M12.5834 6.25C12.5834 8.32107 10.9045 10 8.83342 10C6.76235 10 5.08341 8.32107 5.08341 6.25C5.08341 4.17893 6.76235 2.5 8.83342 2.5C10.9045 2.5 12.5834 4.17893 12.5834 6.25Z" stroke="#D7B47C" stroke-width="1.5" stroke-linecap="round" stroke-linejoin="round"/>
</svg>
