<svg width="21" height="20" viewBox="0 0 21 20" fill="none" xmlns="http://www.w3.org/2000/svg">
<path d="M4.93033 16.1986C5.43727 15.0043 6.62085 14.1666 8.00008 14.1666H13.0001C14.3793 14.1666 15.5629 15.0043 16.0698 16.1986M13.8334 7.91663C13.8334 9.75758 12.341 11.25 10.5001 11.25C8.65913 11.25 7.16675 9.75758 7.16675 7.91663C7.16675 6.07568 8.65913 4.58329 10.5001 4.58329C12.341 4.58329 13.8334 6.07568 13.8334 7.91663ZM18.8334 9.99996C18.8334 14.6023 15.1025 18.3333 10.5001 18.3333C5.89771 18.3333 2.16675 14.6023 2.16675 9.99996C2.16675 5.39759 5.89771 1.66663 10.5001 1.66663C15.1025 1.66663 18.8334 5.39759 18.8334 9.99996Z" stroke="#D7B47C" stroke-width="1.2" stroke-linecap="round" stroke-linejoin="round"/>
</svg>
