<svg width="64" height="65" viewBox="0 0 64 65" fill="none" xmlns="http://www.w3.org/2000/svg">
<g filter="url(#filter0_d_204_101)">
<rect x="10" y="8.5" width="44" height="44" rx="12" fill="white" shape-rendering="crispEdges"/>
<path fill-rule="evenodd" clip-rule="evenodd" d="M35.6011 20.8989C35.2691 20.5669 34.7309 20.5669 34.399 20.8989C34.067 21.2308 34.067 21.769 34.399 22.1009L38.9479 26.6499H28C26.4485 26.6499 24.9605 27.2662 23.8634 28.3633C22.7664 29.4604 22.15 30.9484 22.15 32.4999C22.15 34.0514 22.7664 35.5394 23.8634 36.6365C24.9605 37.7336 26.4485 38.3499 28 38.3499H35C35.4695 38.3499 35.85 37.9693 35.85 37.4999C35.85 37.0305 35.4695 36.6499 35 36.6499H28C26.8994 36.6499 25.8438 36.2127 25.0655 35.4344C24.2873 34.6561 23.85 33.6006 23.85 32.4999C23.85 31.3993 24.2873 30.3437 25.0655 29.5654C25.8438 28.7871 26.8994 28.3499 28 28.3499H38.9479L34.399 32.8989C34.067 33.2308 34.067 33.769 34.399 34.1009C34.7309 34.4329 35.2691 34.4329 35.6011 34.1009L41.6011 28.1009C41.933 27.769 41.933 27.2308 41.6011 26.8989L35.6011 20.8989Z" fill="#D09D4A"/>
</g>
<defs>
<filter id="filter0_d_204_101" x="0" y="0.5" width="64" height="64" filterUnits="userSpaceOnUse" color-interpolation-filters="sRGB">
<feFlood flood-opacity="0" result="BackgroundImageFix"/>
<feColorMatrix in="SourceAlpha" type="matrix" values="0 0 0 0 0 0 0 0 0 0 0 0 0 0 0 0 0 0 127 0" result="hardAlpha"/>
<feOffset dy="2"/>
<feGaussianBlur stdDeviation="5"/>
<feComposite in2="hardAlpha" operator="out"/>
<feColorMatrix type="matrix" values="0 0 0 0 0.486275 0 0 0 0 0.552941 0 0 0 0 0.709804 0 0 0 0.12 0"/>
<feBlend mode="normal" in2="BackgroundImageFix" result="effect1_dropShadow_204_101"/>
<feBlend mode="normal" in="SourceGraphic" in2="effect1_dropShadow_204_101" result="shape"/>
</filter>
</defs>
</svg>
