<svg width="21" height="20" viewBox="0 0 21 20" fill="none" xmlns="http://www.w3.org/2000/svg">
<path d="M2.16675 5.83337L8.97085 10.5962C9.52182 10.9819 9.79731 11.1748 10.097 11.2495C10.3617 11.3154 10.6385 11.3154 10.9032 11.2495C11.2029 11.1748 11.4783 10.9819 12.0293 10.5962L18.8334 5.83337M6.16675 16.6667H14.8334C16.2335 16.6667 16.9336 16.6667 17.4684 16.3942C17.9388 16.1545 18.3212 15.7721 18.5609 15.3017C18.8334 14.7669 18.8334 14.0668 18.8334 12.6667V7.33337C18.8334 5.93324 18.8334 5.23318 18.5609 4.6984C18.3212 4.22799 17.9388 3.84554 17.4684 3.60586C16.9336 3.33337 16.2335 3.33337 14.8334 3.33337H6.16675C4.76662 3.33337 4.06655 3.33337 3.53177 3.60586C3.06137 3.84554 2.67892 4.22799 2.43923 4.6984C2.16675 5.23318 2.16675 5.93324 2.16675 7.33337V12.6667C2.16675 14.0668 2.16675 14.7669 2.43923 15.3017C2.67892 15.7721 3.06137 16.1545 3.53177 16.3942C4.06655 16.6667 4.76662 16.6667 6.16675 16.6667Z" stroke="#D7B47C" stroke-width="1.2" stroke-linecap="round" stroke-linejoin="round"/>
</svg>
